#
#
#

mtllib violet_car.mtl


#
# Cube Mesh
#
g Cube Mesh


#
# Cube Mesh_Cube_Phong[60]
#
usemtl Cube Mesh_Cube_Phong[60]

v 15.246465 10.987289 25.948080
v 21.102146 10.987289 25.948080
v 21.102146 10.987289 14.057066
v 15.246465 10.987289 14.057066
v 21.102146 -2.869300 14.057066
v 15.246465 -2.869300 14.057066
v 21.102146 -2.869300 25.948080
v 15.246465 -2.869300 25.948080
v -24.358643 10.987289 25.948080
v -18.502964 10.987289 25.948080
v -18.502964 10.987289 14.057066
v -24.358643 10.987289 14.057066
v -18.502964 -2.869300 14.057066
v -24.358643 -2.869300 14.057066
v -18.502964 -2.869300 25.948080
v -24.358643 -2.869300 25.948080
v -24.306744 13.810696 25.816729
v 20.968914 13.810696 25.816729
v 20.968914 13.810696 14.092026
v -24.306744 13.810696 14.092026
v 20.968914 9.951769 14.092026
v -24.306744 9.951769 14.092026
v 20.968914 9.951769 25.816729
v -24.306744 9.951769 25.816729
vn 0.000000 1.000000 0.000000
vn 0.000000 0.000000 -1.000000
vn 1.000000 0.000000 0.000000
vn 0.000000 0.000000 1.000000
vn -1.000000 0.000000 0.000000
vn 0.000000 -1.000000 0.000000
vt 0.250000 0.750000
vt 0.500000 0.750000
vt 0.500000 1.000000
vt 0.250000 1.000000
vt 0.250000 0.500000
vt 0.500000 0.500000
vt 0.750000 0.250000
vt 0.500000 0.250000
vt 0.500000 0.000000
vt 0.750000 0.000000
vt 0.250000 0.250000
vt 0.250000 0.000000
vt 0.000000 0.250000
vt 0.000000 0.000000
f 1/1/1 2/2/1 3/3/1 4/4/1
f 4/2/2 3/1/2 5/5/2 6/6/2
f 3/7/3 2/8/3 7/9/3 5/10/3
f 2/8/4 1/11/4 8/12/4 7/9/4
f 1/11/5 4/13/5 6/14/5 8/12/5
f 6/6/6 5/5/6 7/11/6 8/8/6

#
# Cube Mesh_Cube_Phong[69]
#
usemtl Cube Mesh_Cube_Phong[69]

v 15.246465 10.987289 25.948080
v 21.102146 10.987289 25.948080
v 21.102146 10.987289 14.057066
v 15.246465 10.987289 14.057066
v 21.102146 -2.869300 14.057066
v 15.246465 -2.869300 14.057066
v 21.102146 -2.869300 25.948080
v 15.246465 -2.869300 25.948080
v -24.358643 10.987289 25.948080
v -18.502964 10.987289 25.948080
v -18.502964 10.987289 14.057066
v -24.358643 10.987289 14.057066
v -18.502964 -2.869300 14.057066
v -24.358643 -2.869300 14.057066
v -18.502964 -2.869300 25.948080
v -24.358643 -2.869300 25.948080
v -24.306744 13.810696 25.816729
v 20.968914 13.810696 25.816729
v 20.968914 13.810696 14.092026
v -24.306744 13.810696 14.092026
v 20.968914 9.951769 14.092026
v -24.306744 9.951769 14.092026
v 20.968914 9.951769 25.816729
v -24.306744 9.951769 25.816729
vn 0.000000 1.000000 0.000000
vn 0.000000 0.000000 -1.000000
vn 1.000000 0.000000 0.000000
vn 0.000000 0.000000 1.000000
vn -1.000000 0.000000 0.000000
vn 0.000000 -1.000000 0.000000
vt 0.250000 0.750000
vt 0.500000 0.750000
vt 0.500000 1.000000
vt 0.250000 1.000000
vt 0.250000 0.500000
vt 0.500000 0.500000
vt 0.750000 0.250000
vt 0.500000 0.250000
vt 0.500000 0.000000
vt 0.750000 0.000000
vt 0.250000 0.250000
vt 0.250000 0.000000
vt 0.000000 0.250000
vt 0.000000 0.000000
f 33/15/7 34/16/7 35/17/7 36/18/7
f 36/16/8 35/15/8 37/19/8 38/20/8
f 35/21/9 34/22/9 39/23/9 37/24/9
f 34/22/10 33/25/10 40/26/10 39/23/10
f 33/25/11 36/27/11 38/28/11 40/26/11
f 38/20/12 37/19/12 39/25/12 40/22/12

#
# Cube Mesh_Cube_Phong[70]
#
usemtl Cube Mesh_Cube_Phong[70]

v 15.246465 10.987289 25.948080
v 21.102146 10.987289 25.948080
v 21.102146 10.987289 14.057066
v 15.246465 10.987289 14.057066
v 21.102146 -2.869300 14.057066
v 15.246465 -2.869300 14.057066
v 21.102146 -2.869300 25.948080
v 15.246465 -2.869300 25.948080
v -24.358643 10.987289 25.948080
v -18.502964 10.987289 25.948080
v -18.502964 10.987289 14.057066
v -24.358643 10.987289 14.057066
v -18.502964 -2.869300 14.057066
v -24.358643 -2.869300 14.057066
v -18.502964 -2.869300 25.948080
v -24.358643 -2.869300 25.948080
v -24.306744 13.810696 25.816729
v 20.968914 13.810696 25.816729
v 20.968914 13.810696 14.092026
v -24.306744 13.810696 14.092026
v 20.968914 9.951769 14.092026
v -24.306744 9.951769 14.092026
v 20.968914 9.951769 25.816729
v -24.306744 9.951769 25.816729
vn 0.000000 1.000000 0.000000
vn 0.000000 0.000000 -1.000000
vn 1.000000 0.000000 0.000000
vn 0.000000 0.000000 1.000000
vn -1.000000 0.000000 0.000000
vn 0.000000 -1.000000 0.000000
vt 0.250000 0.750000
vt 0.500000 0.750000
vt 0.500000 1.000000
vt 0.250000 1.000000
vt 0.250000 0.500000
vt 0.500000 0.500000
vt 0.750000 0.250000
vt 0.500000 0.250000
vt 0.500000 0.000000
vt 0.750000 0.000000
vt 0.250000 0.250000
vt 0.250000 0.000000
vt 0.000000 0.250000
vt 0.000000 0.000000
f 65/29/13 66/30/13 67/31/13 68/32/13
f 68/30/14 67/29/14 69/33/14 70/34/14
f 67/35/15 66/36/15 71/37/15 69/38/15
f 66/36/16 65/39/16 72/40/16 71/37/16
f 65/39/17 68/41/17 70/42/17 72/40/17
f 70/34/18 69/33/18 71/39/18 72/36/18
