#
#
#

mtllib bridge.mtl


#
# Cylinder_Mesh Mesh Mesh Mesh Mesh
#
g Cylinder_Mesh Mesh Mesh Mesh Mesh


#
# Cylinder_Mesh Mesh Mesh Mesh Mesh_Cylinder_Mesh Mesh Mesh Mesh_Cylinder_Mesh Mesh Mesh_Default - Lambert
#
usemtl Cylinder_Mesh Mesh Mesh Mesh Mesh_Cylinder_Mesh Mesh Mesh Mesh_Cylinder_Mesh Mesh Mesh_Default - Lambert

v -65.971268 -5.206849 -1.551842
v -65.964340 2.344099 -1.551420
v -64.070702 2.342267 -0.932967
v -64.077637 -5.208681 -0.933392
v -65.337166 -5.207278 -2.780930
v -65.330238 2.343670 -2.780506
v -63.443531 -5.209110 -2.162478
v -63.436604 2.341839 -2.162055
v -55.512577 -2.462133 1.679267
v -55.505646 5.088816 1.679693
v -53.612003 5.086984 2.298147
v -53.618938 -2.463965 2.297721
v -54.878468 -2.462561 0.450178
v -54.871536 5.088387 0.450605
v -52.984833 -2.464393 1.068634
v -52.977901 5.086555 1.069059
v -39.722767 -0.368973 6.835639
v -39.715839 7.181977 6.836067
v -37.822201 7.180145 7.454523
v -37.829128 -0.370805 7.454095
v -39.088661 -0.369402 5.606551
v -39.081734 7.181548 5.606978
v -37.195026 -0.371233 6.225007
v -37.188095 7.179716 6.225434
v -19.506044 0.752548 13.438062
v -19.499119 8.303501 13.438489
v -17.605480 8.301669 14.056944
v -17.612408 0.750716 14.056517
v -18.871941 0.752120 12.208973
v -18.865013 8.303073 12.209400
v -16.978300 0.750288 12.827428
v -16.971375 8.301241 12.827856
v 0.121727 0.733562 19.848413
v 0.128655 8.284513 19.848839
v 2.022294 8.282681 20.467295
v 2.015367 0.731730 20.466869
v 0.755831 0.733133 18.619326
v 0.762759 8.284084 18.619753
v 2.649470 0.731301 19.237782
v 2.656398 8.282252 19.238205
v 20.336082 -0.427073 26.450615
v 20.343008 7.123875 26.451044
v 22.236649 7.122044 27.069500
v 22.229721 -0.428905 27.069073
v 20.970186 -0.427502 25.221531
v 20.977114 7.123446 25.221958
v 22.863825 -0.429334 25.839981
v 22.870752 7.121615 25.840412
v 36.122284 -2.550781 31.606844
v 36.129223 5.000167 31.607265
v 38.022858 4.998336 32.225723
v 38.015926 -2.552613 32.225292
v 36.756397 -2.551210 30.377756
v 36.763325 4.999739 30.378181
v 38.650032 -2.553042 30.996210
v 38.656963 4.997907 30.996630
v 46.707890 -5.315832 35.064728
v 46.714817 2.235116 35.065147
v 48.608456 2.233284 35.683609
v 48.601532 -5.317664 35.683182
v 47.341995 -5.316261 33.835640
v 47.348927 2.234687 33.836067
v 49.235634 -5.318093 34.454098
v 49.242561 2.232855 34.454517
v -12.313190 1.210812 -24.974745
v 9.252838 1.783062 -17.931511
v -9.249555 1.795572 17.931715
v -30.815578 1.223310 10.888483
v 12.315355 1.181596 24.974871
v 30.817749 1.169087 -10.888356
v 30.596252 -0.525137 30.945745
v 49.098640 -0.537642 -4.917480
v 42.809612 -3.064789 34.935196
v 61.312004 -3.077286 -0.928030
v 51.064182 -6.054562 37.631832
v 69.566582 -6.067060 1.768606
v -30.597155 -0.460546 -30.945805
v -49.099548 -0.448041 4.917423
v -42.815155 -2.976565 -34.935543
v -61.317543 -2.964055 0.927688
v -51.075199 -5.950350 -37.632507
v -69.577583 -5.937852 -1.769285
v -12.314831 -0.580315 -24.974848
v -30.817221 -0.567811 10.888381
v -9.251197 0.004441 17.931614
v 9.251194 -0.008064 -17.931612
v 12.313712 -0.609534 24.974770
v -30.598799 -2.251672 -30.945904
v -49.101189 -2.239163 4.917322
v -42.816795 -4.767685 -34.935638
v -61.319183 -4.755188 0.927587
v -51.076843 -7.741482 -37.632614
v -69.579231 -7.728973 -1.769386
v 30.816107 -0.622039 -10.888458
v 30.594608 -2.316261 30.945644
v 49.097000 -2.328770 -4.917581
v 42.807968 -4.855909 34.935097
v 61.310360 -4.868419 -0.928129
v 51.062538 -7.845683 37.631729
v 69.564934 -7.858192 1.768505
v -29.669407 8.731071 8.680628
v -8.103380 9.303322 15.723860
v -9.242664 9.304091 17.932138
v -30.808691 8.731841 10.888906
v 12.322244 8.690116 24.975296
v 13.461529 8.689346 22.767015
v 30.603142 6.983379 30.946171
v 31.742424 6.982609 28.737896
v 42.816498 4.443731 34.935623
v 43.955788 4.442961 32.727345
v 51.071075 1.453958 37.632259
v 52.210358 1.453199 35.423977
v -47.953373 7.059708 2.709569
v -49.092655 7.060478 4.917848
v -60.171368 4.543694 -1.280167
v -61.310658 4.544465 0.928113
v -68.431419 1.569909 -3.977137
v -69.570694 1.570668 -1.768859
v -29.670567 7.469041 8.680556
v -30.809847 7.469811 10.888834
v -9.243823 8.042062 17.932068
v -8.104539 8.041292 15.723789
v 12.321087 7.428086 24.975225
v -47.954529 5.797678 2.709499
v -49.093811 5.798449 4.917776
v -60.172527 3.281664 -1.280239
v -61.311813 3.282435 0.928039
v -68.432579 0.307876 -3.977209
v -69.571861 0.308644 -1.768932
v 13.460370 7.427316 22.766945
v 30.601982 5.721350 30.946100
v 31.741268 5.720591 28.737822
v 42.815338 3.181701 34.935555
v 43.954628 3.180931 32.727272
v 51.069920 0.191934 37.632187
v 52.209202 0.191166 35.423904
v -48.316765 -5.218785 -35.771603
v -46.423134 -5.220617 -35.153145
v -46.416203 2.330331 -35.152725
v -48.309841 2.332163 -35.771175
v -48.950878 -5.218357 -34.542511
v -48.943947 2.332592 -34.542091
v -47.057240 -5.220189 -33.924065
v -47.050312 2.330760 -33.923637
v -38.020542 -2.473959 -32.225582
v -36.126904 -2.475791 -31.607124
v -36.119972 5.075158 -31.606695
v -38.013611 5.076989 -32.225159
v -38.654648 -2.473530 -30.996489
v -38.647717 5.077418 -30.996065
v -36.761013 -2.475362 -30.378036
v -36.754082 5.075586 -30.377611
v -22.230736 -0.380796 -27.069208
v -20.337097 -0.382627 -26.450752
v -20.330170 7.168330 -26.450323
v -22.223808 7.170162 -27.068781
v -22.864841 -0.380367 -25.840118
v -22.857914 7.170590 -25.839691
v -20.971199 -0.382199 -25.221663
v -20.964272 7.168758 -25.221233
v -2.014014 0.740726 -20.466785
v -0.120376 0.738894 -19.848330
v -0.113449 8.289844 -19.847904
v -2.007086 8.291676 -20.466358
v -2.648119 0.741154 -19.237698
v -2.641192 8.292104 -19.237268
v -0.754480 0.739322 -18.619240
v -0.747552 8.290272 -18.618814
v 17.613758 0.721739 -14.056434
v 19.507399 0.719907 -13.437978
v 19.514326 8.270855 -13.437551
v 17.620687 8.272687 -14.056006
v 16.979652 0.722168 -12.827346
v 16.986582 8.273115 -12.826919
v 18.873295 0.720336 -12.208890
v 18.880222 8.271283 -12.208465
v 37.828114 -0.438896 -7.454229
v 39.721748 -0.440728 -6.835774
v 39.728683 7.110229 -6.835347
v 37.835041 7.112060 -7.453802
v 37.194008 -0.438467 -6.225142
v 37.200935 7.112489 -6.224713
v 39.087646 -0.440299 -5.606687
v 39.094570 7.110657 -5.606258
v 53.614319 -2.562607 -2.298003
v 55.507957 -2.564439 -1.679549
v 55.514885 4.986509 -1.679124
v 53.621250 4.988341 -2.297578
v 52.980217 -2.562178 -1.068916
v 52.987144 4.988770 -1.068491
v 54.873852 -2.564010 -0.450461
v 54.880783 4.986938 -0.450036
v 64.199921 -5.327659 1.159882
v 66.093567 -5.329491 1.778336
v 66.100487 2.221458 1.778760
v 64.206848 2.223290 1.160306
v 63.565815 -5.327230 2.388969
v 63.572746 2.223718 2.389394
v 65.459450 -5.329062 3.007425
v 65.466385 2.221887 3.007848
v -13.445582 8.720102 -22.766043
v -12.306299 8.719333 -24.974318
v 9.259727 9.291583 -17.931087
v 8.120441 9.292353 -15.722809
v 30.824635 8.677608 -10.887932
v -31.729551 7.048751 -28.737103
v -30.590265 7.047969 -30.945381
v -43.947548 4.532725 -32.726837
v -42.808266 4.531955 -34.935112
v -52.207596 1.558941 -35.423809
v -51.068306 1.558170 -37.632088
v 29.685349 8.678377 -8.679653
v 49.105534 6.970882 -4.917056
v 47.966244 6.971652 -2.708777
v 61.318890 4.431221 -0.927604
v 60.179607 4.432004 1.280674
v 69.573456 1.441460 1.769031
v 68.434189 1.442231 3.977307
v -13.446741 7.458072 -22.766113
v 8.119285 8.030323 -15.722879
v 9.258569 8.029553 -17.931158
v -12.307456 7.457302 -24.974394
v 30.823477 7.415577 -10.888003
v 29.684193 7.416347 -8.679725
v 49.104374 5.708852 -4.917126
v 47.965092 5.709622 -2.708848
v 61.317738 3.169204 -0.927677
v 60.178444 3.169974 1.280602
v 69.572304 0.179428 1.768958
v 68.433037 0.180199 3.977234
v -31.730709 5.786721 -28.737173
v -30.591423 5.785951 -30.945452
v -43.948708 3.270708 -32.726906
v -42.809422 3.269925 -34.935184
v -52.208755 0.296909 -35.423878
v -51.069466 0.296138 -37.632156
vn 0.754915 -0.000637 -0.655822
vn 0.997425 -0.000912 -0.071709
vn -0.071709 0.000155 -0.997426
vn -0.655822 0.000671 -0.754915
vn 0.655822 -0.000671 0.754915
vn 0.071709 -0.000155 0.997426
vn -0.754915 0.000637 0.655822
vn -0.997425 0.000912 0.071709
vn 0.997425 -0.000912 -0.071710
vn -0.997425 0.000912 0.071710
vn -0.198025 -0.701711 0.684389
vn -0.284743 -0.706115 0.648323
vn 0.283441 -0.706523 -0.648450
vn 0.374363 -0.697422 -0.611110
vn 0.196733 -0.701952 -0.684514
vn -0.375647 -0.696840 0.610986
vn 0.085220 -0.675906 -0.732044
vn -0.505096 -0.657639 0.558918
vn -0.057556 -0.608647 -0.791351
vn -0.645242 -0.576538 0.501265
vn -0.705348 -0.408461 -0.579347
vn -0.845030 -0.284164 0.452963
vn -0.086465 -0.675879 0.731923
vn 0.503884 -0.658468 -0.559036
vn 0.056435 -0.608893 0.791242
vn 0.644179 -0.577636 -0.501368
vn 0.704594 -0.409864 0.579274
vn 0.844506 -0.285639 -0.453013
vn -0.342740 0.702092 0.624177
vn 0.166402 0.697041 -0.697456
vn 0.257161 0.706141 -0.659722
vn -0.255860 0.706496 0.659848
vn 0.344033 0.701571 -0.624051
vn -0.455317 0.676261 0.579101
vn 0.037898 0.658086 -0.751989
vn -0.598419 0.609274 0.520269
vn -0.102196 0.577254 -0.810144
vn -0.402109 0.606040 0.686312
vn 0.883973 0.413559 -0.218086
vn -0.165118 0.697222 0.697580
vn 0.456562 0.675524 -0.578981
vn -0.036685 0.658021 0.752105
vn 0.599540 0.608264 -0.520160
vn 0.103259 0.576920 0.810247
vn 0.403225 0.605420 -0.686204
vn -0.883209 0.415148 0.218161
vn -0.598418 0.609275 0.520269
vn 0.374363 -0.697422 -0.611109
vn -0.505097 -0.657638 0.558918
vn -0.645242 -0.576539 0.501264
vn -0.705347 -0.408462 -0.579349
vn -0.845031 -0.284165 0.452960
vn 0.644179 -0.577636 -0.501369
vn 0.704595 -0.409864 0.579273
vn 0.844505 -0.285639 -0.453015
vn 0.166401 0.697041 -0.697456
vn -0.598417 0.609275 0.520270
vn -0.402108 0.606040 0.686313
vn 0.883972 0.413560 -0.218086
vn -0.165119 0.697221 0.697580
vn 0.456561 0.675526 -0.578979
vn -0.036687 0.658019 0.752107
vn 0.599539 0.608265 -0.520160
vn 0.403224 0.605421 -0.686204
vn -0.505096 -0.657638 0.558919
vn 0.342739 -0.702092 -0.624177
vn -0.166403 -0.697040 0.697456
vn -0.257161 -0.706141 0.659722
vn 0.255860 -0.706496 -0.659848
vn -0.344033 -0.701571 0.624051
vn 0.455317 -0.676262 -0.579099
vn -0.037899 -0.658084 0.751990
vn 0.598418 -0.609276 -0.520268
vn 0.102195 -0.577255 0.810144
vn 0.907892 -0.410008 0.087325
vn 0.278275 -0.285241 0.917170
vn 0.165118 -0.697222 -0.697580
vn -0.456562 -0.675524 0.578981
vn 0.036685 -0.658021 -0.752105
vn -0.599539 -0.608263 0.520163
vn -0.103260 -0.576922 -0.810246
vn -0.908646 -0.408318 -0.087397
vn -0.278801 -0.284563 -0.917221
vn 0.198025 0.701711 -0.684389
vn 0.284743 0.706115 -0.648323
vn -0.283441 0.706523 0.648450
vn -0.374363 0.697422 0.611110
vn -0.196733 0.701952 0.684514
vn 0.375647 0.696840 -0.610986
vn -0.085220 0.675907 0.732043
vn 0.505096 0.657638 -0.558919
vn 0.057556 0.608647 0.791351
vn 0.645242 0.576538 -0.501265
vn -0.198705 0.605845 0.770369
vn -0.471455 0.414857 -0.778219
vn 0.086465 0.675879 -0.731923
vn -0.503884 0.658469 0.559035
vn -0.056433 0.608891 -0.791244
vn -0.644180 0.577638 0.501365
vn 0.199822 0.605614 -0.770262
vn 0.472219 0.413850 0.778291
f 1//1 2//2 3//3
f 4//4 1//1 3//3
f 5//5 6//6 2//2
f 1//1 5//5 2//2
f 7//7 8//8 6//6
f 5//5 7//7 6//6
f 4//4 3//3 8//8
f 7//7 4//4 8//8
f 9//1 10//9 11//3
f 12//4 9//1 11//3
f 13//5 14//6 10//9
f 9//1 13//5 10//9
f 15//7 16//10 14//6
f 13//5 15//7 14//6
f 12//4 11//3 16//10
f 15//7 12//4 16//10
f 17//1 18//9 19//3
f 20//4 17//1 19//3
f 21//5 22//6 18//9
f 17//1 21//5 18//9
f 23//7 24//10 22//6
f 21//5 23//7 22//6
f 20//4 19//3 24//10
f 23//7 20//4 24//10
f 25//1 26//9 27//3
f 28//4 25//1 27//3
f 29//5 30//6 26//9
f 25//1 29//5 26//9
f 31//7 32//10 30//6
f 29//5 31//7 30//6
f 28//4 27//3 32//10
f 31//7 28//4 32//10
f 33//1 34//9 35//3
f 36//4 33//1 35//3
f 37//5 38//6 34//9
f 33//1 37//5 34//9
f 39//7 40//10 38//6
f 37//5 39//7 38//6
f 36//4 35//3 40//10
f 39//7 36//4 40//10
f 41//1 42//9 43//3
f 44//4 41//1 43//3
f 45//5 46//6 42//9
f 41//1 45//5 42//9
f 47//7 48//10 46//6
f 45//5 47//7 46//6
f 44//4 43//3 48//10
f 47//7 44//4 48//10
f 49//1 50//9 51//3
f 52//4 49//1 51//3
f 53//5 54//6 50//9
f 49//1 53//5 50//9
f 55//7 56//10 54//6
f 53//5 55//7 54//6
f 52//4 51//3 56//10
f 55//7 52//4 56//10
f 57//1 58//2 59//3
f 60//4 57//1 59//3
f 61//5 62//6 58//2
f 57//1 61//5 58//2
f 63//7 64//8 62//6
f 61//5 63//7 62//6
f 60//4 59//3 64//8
f 63//7 60//4 64//8
f 65//11 66//12 67//13
f 68//14 65//11 67//13
f 67//13 66//12 69//15
f 66//12 70//16 69//15
f 69//15 70//16 71//17
f 70//16 72//18 71//17
f 71//17 72//18 73//19
f 72//18 74//20 73//19
f 73//19 74//20 75//21
f 74//20 76//22 75//21
f 77//23 65//11 68//14
f 78//24 77//23 68//14
f 79//25 77//23 78//24
f 80//26 79//25 78//24
f 81//27 79//25 80//26
f 82//28 81//27 80//26
f 83//29 84//30 85//31
f 86//32 83//29 85//31
f 86//32 85//31 87//33
f 88//34 89//35 84//30
f 83//29 88//34 84//30
f 90//36 91//37 89//35
f 88//34 90//36 89//35
f 92//38 93//39 91//37
f 90//36 92//38 91//37
f 94//40 86//32 87//33
f 94//40 87//33 95//41
f 96//42 94//40 95//41
f 96//42 95//41 97//43
f 98//44 96//42 97//43
f 98//44 97//43 99//45
f 100//46 98//44 99//45
f 96//42 98//44 74//20
f 72//18 96//42 74//20
f 74//20 98//44 76//22
f 98//44 100//46 76//22
f 94//40 96//42 72//18
f 70//16 94//40 72//18
f 86//32 94//40 70//16
f 66//12 86//32 70//16
f 83//29 86//32 66//12
f 65//11 83//29 66//12
f 88//34 83//29 65//11
f 77//23 88//34 65//11
f 90//36 88//34 77//23
f 79//25 90//36 77//23
f 92//38 90//47 79//25
f 81//27 92//38 79//25
f 84//30 89//35 78//24
f 68//14 84//30 78//24
f 78//24 89//35 80//26
f 89//35 91//37 80//26
f 80//26 91//37 82//28
f 91//37 93//39 82//28
f 85//31 84//30 68//14
f 67//13 85//31 68//14
f 87//33 85//31 67//13
f 69//15 87//33 67//13
f 95//41 87//33 69//15
f 71//17 95//41 69//15
f 97//43 95//41 71//17
f 73//19 97//43 71//17
f 99//45 97//43 73//19
f 75//21 99//45 73//19
f 93//39 92//38 81//27
f 82//28 93//39 81//27
f 100//46 99//45 75//21
f 76//22 100//46 75//21
f 101//11 102//12 103//13
f 104//48 101//11 103//13
f 103//13 102//12 105//15
f 102//12 106//16 105//15
f 105//15 106//16 107//17
f 106//16 108//49 107//17
f 107//17 108//49 109//19
f 108//49 110//50 109//19
f 109//19 110//50 111//51
f 110//50 112//52 111//51
f 113//23 101//11 104//48
f 114//24 113//23 104//48
f 115//25 113//23 114//24
f 116//53 115//25 114//24
f 117//54 115//25 116//53
f 118//55 117//54 116//53
f 119//29 120//56 121//31
f 122//32 119//29 121//31
f 122//32 121//31 123//33
f 124//34 125//35 120//56
f 119//29 124//34 120//56
f 126//57 127//37 125//35
f 124//34 126//57 125//35
f 128//58 129//59 127//37
f 126//57 128//58 127//37
f 130//60 122//32 123//33
f 130//60 123//33 131//61
f 132//62 130//60 131//61
f 132//62 131//61 133//63
f 134//44 132//62 133//63
f 134//44 133//63 135//64
f 136//46 134//44 135//64
f 128//58 126//57 115//25
f 117//54 128//58 115//25
f 115//25 126//57 113//23
f 126//57 124//34 113//23
f 113//23 124//34 101//11
f 124//34 119//29 101//11
f 101//11 119//29 102//12
f 119//29 122//32 102//12
f 102//12 122//32 106//16
f 122//32 130//60 106//16
f 106//16 130//60 108//49
f 130//60 132//62 108//65
f 108//49 132//62 110//50
f 132//62 134//44 110//50
f 110//50 134//44 112//52
f 134//44 136//46 112//52
f 120//56 125//35 114//24
f 104//48 120//56 114//24
f 114//24 125//35 116//53
f 125//35 127//37 116//53
f 116//53 127//37 118//55
f 127//37 129//59 118//55
f 121//31 120//56 104//48
f 103//13 121//31 104//48
f 123//33 121//31 103//13
f 105//15 123//33 103//13
f 131//61 123//33 105//15
f 107//17 131//61 105//15
f 133//63 131//61 107//17
f 109//19 133//63 107//17
f 135//64 133//63 109//19
f 111//51 135//64 109//19
f 129//59 128//58 117//54
f 118//55 129//59 117//54
f 136//46 135//64 111//51
f 112//52 136//46 111//51
f 137//6 138//8 139//7
f 140//5 137//6 139//7
f 141//2 137//6 140//5
f 142//1 141//2 140//5
f 143//3 141//2 142//1
f 144//4 143//3 142//1
f 138//8 143//3 144//4
f 139//7 138//8 144//4
f 145//6 146//10 147//7
f 148//5 145//6 147//7
f 149//9 145//6 148//5
f 150//1 149//9 148//5
f 151//3 149//9 150//1
f 152//4 151//3 150//1
f 146//10 151//3 152//4
f 147//7 146//10 152//4
f 153//6 154//10 155//7
f 156//5 153//6 155//7
f 157//9 153//6 156//5
f 158//1 157//9 156//5
f 159//3 157//9 158//1
f 160//4 159//3 158//1
f 154//10 159//3 160//4
f 155//7 154//10 160//4
f 161//6 162//10 163//7
f 164//5 161//6 163//7
f 165//9 161//6 164//5
f 166//1 165//9 164//5
f 167//3 165//9 166//1
f 168//4 167//3 166//1
f 162//10 167//3 168//4
f 163//7 162//10 168//4
f 169//6 170//10 171//7
f 172//5 169//6 171//7
f 173//9 169//6 172//5
f 174//1 173//9 172//5
f 175//3 173//9 174//1
f 176//4 175//3 174//1
f 170//10 175//3 176//4
f 171//7 170//10 176//4
f 177//6 178//10 179//7
f 180//5 177//6 179//7
f 181//9 177//6 180//5
f 182//1 181//9 180//5
f 183//3 181//9 182//1
f 184//4 183//3 182//1
f 178//10 183//3 184//4
f 179//7 178//10 184//4
f 185//6 186//10 187//7
f 188//5 185//6 187//7
f 189//9 185//6 188//5
f 190//1 189//9 188//5
f 191//3 189//9 190//1
f 192//4 191//3 190//1
f 186//10 191//3 192//4
f 187//7 186//10 192//4
f 193//6 194//8 195//7
f 196//5 193//6 195//7
f 197//2 193//6 196//5
f 198//1 197//2 196//5
f 199//3 197//2 198//1
f 200//4 199//3 198//1
f 194//8 199//3 200//4
f 195//7 194//8 200//4
f 201//66 202//67 203//68
f 204//69 201//66 203//68
f 204//69 203//68 205//70
f 206//71 207//72 202//67
f 201//66 206//71 202//67
f 208//73 209//74 207//72
f 206//71 208//73 207//72
f 210//75 211//76 209//74
f 208//73 210//75 209//74
f 212//77 204//69 205//70
f 212//77 205//70 213//78
f 214//79 212//77 213//78
f 214//79 213//78 215//80
f 216//81 214//79 215//80
f 216//81 215//80 217//82
f 218//83 216//81 217//82
f 219//84 220//85 221//86
f 222//87 219//84 221//86
f 221//86 220//85 223//88
f 220//85 224//89 223//88
f 223//88 224//89 225//90
f 224//89 226//91 225//90
f 225//90 226//91 227//92
f 226//91 228//93 227//92
f 227//92 228//93 229//94
f 228//93 230//95 229//94
f 231//96 219//84 222//87
f 232//97 231//96 222//87
f 233//98 231//96 232//97
f 234//99 233//98 232//97
f 235//100 233//98 234//99
f 236//101 235//100 234//99
f 235//100 210//75 208//73
f 233//98 235//100 208//73
f 233//98 208//73 206//71
f 231//96 233//98 206//71
f 231//96 206//71 201//66
f 219//84 231//96 201//66
f 219//84 201//66 204//69
f 220//85 219//84 204//69
f 220//85 204//69 212//77
f 224//89 220//85 212//77
f 224//89 212//77 214//79
f 226//91 224//89 214//79
f 226//91 214//79 216//81
f 228//93 226//91 216//81
f 228//93 216//81 218//83
f 230//95 228//93 218//83
f 222//87 202//67 207//72
f 232//97 222//87 207//72
f 232//97 207//72 209//74
f 221//86 203//68 202//67
f 222//87 221//86 202//67
f 223//88 205//70 203//68
f 221//86 223//88 203//68
f 225//90 213//78 205//70
f 223//88 225//90 205//70
f 227//92 215//80 213//78
f 225//90 227//92 213//78
f 229//94 217//82 215//80
f 227//92 229//94 215//80
f 234//99 232//97 209//74
f 234//99 209//74 211//76
f 236//101 234//99 211//76
f 236//101 211//76 210//75
f 235//100 236//101 210//75
f 230//95 218//83 217//82
f 229//94 230//95 217//82
